<svg xmlns="http://www.w3.org/2000/svg" viewBox="144 -154 1100 1100"><path d="M1158.7 53.6L816.3 396l342.4 342.4c15.7 15.7 25.3 37.3 25.3 61.1 0 47.7-38.7 86.5-86.5 86.5-23.9 0-45.5-9.7-61.1-25.3L694 518.3 351.6 860.7C336 876.3 314.3 886 290.5 886c-47.8 0-86.5-38.7-86.5-86.5 0-23.9 9.7-45.5 25.3-61.1L571.7 396 229.3 53.6C213.7 38 204 16.3 204-7.5c0-47.8 38.7-86.5 86.5-86.5 23.9 0 45.5 9.7 61.1 25.3L694 273.7l342.4-342.4c15.6-15.6 37.3-25.3 61.1-25.3 47.8 0 86.5 38.7 86.5 86.5 0 23.8-9.7 45.5-25.3 61.1z" fill="#999"/></svg>